<?xml version="1.0" standalone="no"?>
<!DOCTYPE svg PUBLIC "-//W3C//DTD SVG 20010904//EN"
 "http://www.w3.org/TR/2001/REC-SVG-20010904/DTD/svg10.dtd">
<svg version="1.0" xmlns="http://www.w3.org/2000/svg"
 width="256.000000pt" height="256.000000pt" viewBox="0 0 256.000000 256.000000"
 preserveAspectRatio="xMidYMid meet">

<g transform="translate(0.000000,256.000000) scale(0.100000,-0.100000)"
fill="#000000" stroke="none">
<path d="M2228 2413 c-21 -2 -38 -7 -38 -10 0 -4 24 -48 53 -100 48 -85 75
-111 90 -85 5 7 -17 147 -28 183 -4 10 -14 18 -23 17 -9 -1 -34 -3 -54 -5z"/>
<path d="M1780 2338 c-58 -11 -106 -21 -108 -22 -1 -2 23 -46 54 -100 42 -70
62 -95 73 -91 9 2 32 7 51 9 71 9 163 25 167 30 7 7 -110 196 -121 195 -6 -1
-58 -10 -116 -21z"/>
<path d="M1293 2263 c-13 -7 -27 -12 -31 -11 -9 2 -105 -14 -114 -18 -3 -2 20
-48 53 -102 49 -80 63 -97 82 -94 40 4 212 35 216 38 2 2 -21 46 -52 98 -53
87 -59 94 -93 98 -20 2 -47 -2 -61 -9z"/>
<path d="M732 2169 c-62 -9 -115 -19 -117 -21 -4 -4 97 -174 114 -191 10 -10
218 19 235 34 9 7 -92 186 -109 192 -5 2 -61 -4 -123 -14z"/>
<path d="M245 2088 l-50 -9 3 -907 3 -907 22 -45 c42 -87 -37 -81 1052 -78
1067 4 1000 -1 1043 70 19 32 20 62 27 793 4 418 8 778 9 800 1 36 -2 40 -25
43 -24 3 -28 -4 -67 -100 l-41 -103 -140 -3 c-78 -1 -141 -1 -141 0 0 2 18 48
39 103 22 55 38 101 36 103 -2 2 -58 5 -125 6 l-120 2 -42 -108 -41 -108 -139
0 c-76 0 -138 3 -138 8 0 4 16 45 35 92 19 47 35 91 35 98 0 8 -18 12 -56 12
-30 0 -63 4 -73 9 -10 6 -39 7 -66 3 l-49 -7 -28 -75 c-15 -41 -35 -90 -43
-107 l-15 -33 -133 0 c-74 0 -136 2 -139 5 -3 3 12 51 34 106 22 56 37 103 35
105 -9 10 -237 8 -246 -1 -4 -6 -25 -54 -46 -107 l-37 -98 -139 0 c-105 0
-139 3 -138 13 0 6 17 55 38 107 27 70 41 95 54 94 28 -3 20 23 -44 132 -40
69 -66 104 -77 103 -10 -1 -39 -6 -67 -11z m93 -44 c22 -15 29 -49 14 -69 -4
-6 -23 -12 -44 -14 -29 -2 -37 2 -43 18 -4 13 0 27 9 37 9 9 14 19 11 24 -4 7
8 17 25 19 3 1 16 -6 28 -15z m1226 -720 c0 -27 -13 -118 -28 -202 -15 -85
-26 -156 -23 -158 6 -6 109 114 207 241 95 121 132 158 157 153 22 -5 23 7
-17 -300 -16 -131 -30 -259 -30 -285 1 -44 2 -46 15 -29 8 10 29 53 46 95 65
157 243 502 265 514 8 4 19 5 25 1 21 -12 1 -70 -56 -170 -32 -54 -95 -175
-140 -269 -105 -214 -182 -335 -215 -335 -22 0 -50 41 -50 73 0 28 -3 32 -30
34 -16 1 -73 25 -126 53 -53 28 -98 49 -100 48 -1 -2 -12 -50 -24 -107 -25
-124 -30 -136 -70 -150 -38 -13 -44 -1 -38 69 3 28 4 50 2 50 -1 0 -17 -13
-35 -30 -39 -35 -87 -49 -101 -29 -20 29 2 147 61 336 34 106 61 196 61 200 0
10 -125 -127 -179 -196 -24 -31 -57 -84 -74 -119 -33 -68 -81 -130 -127 -162
-24 -17 -33 -19 -51 -9 -20 10 -21 16 -16 88 4 42 22 139 42 216 19 77 35 144
35 148 0 16 -82 -59 -146 -132 -36 -42 -117 -147 -180 -233 -121 -166 -152
-198 -191 -198 -19 0 -28 10 -45 47 -11 27 -26 55 -33 63 -7 8 -15 28 -18 45
-4 24 1 35 31 62 20 18 41 33 47 33 17 0 52 -40 68 -78 l13 -32 215 242 c241
274 374 411 392 405 31 -10 19 -73 -24 -121 -26 -30 -35 -59 -69 -208 -49
-213 -49 -224 -11 -181 16 17 47 62 69 100 23 37 95 126 162 197 67 72 125
138 130 147 13 23 78 60 85 48 14 -21 6 -67 -20 -129 -15 -36 -54 -143 -86
-239 -63 -190 -65 -217 -11 -205 15 4 30 9 34 13 3 3 25 100 48 215 57 292
106 436 144 423 6 -2 11 -26 10 -53z m-187 -914 c35 0 63 -27 63 -61 0 -34
-32 -59 -77 -59 l-33 0 0 83 c0 83 12 128 18 68 3 -26 8 -31 29 -31z m459 36
c3 -14 3 -30 -1 -35 -4 -7 4 -9 24 -5 36 7 51 -15 51 -76 0 -56 -24 -49 -28 8
-4 58 -28 56 -43 -3 -6 -25 -15 -45 -20 -45 -5 0 -9 41 -9 90 0 87 12 119 26
66z m-861 3 c10 -15 -1 -23 -20 -15 -9 3 -13 10 -10 16 8 13 22 13 30 -1z
m662 -18 c3 -11 14 -22 25 -24 22 -6 16 -27 -8 -27 -10 0 -14 -12 -14 -45 0
-33 -4 -45 -15 -45 -11 0 -15 12 -15 45 0 33 -4 45 -15 45 -8 0 -15 7 -15 15
0 8 7 15 15 15 8 0 15 9 15 20 0 25 20 26 27 1z m-734 -53 c-22 -21 -22 -21
-2 -49 25 -36 5 -53 -23 -19 -17 21 -20 22 -36 6 -20 -17 -42 -21 -42 -8 0 5
9 17 20 27 18 17 19 20 5 41 -19 29 -19 34 0 34 7 0 18 -8 24 -17 9 -17 12
-16 33 4 15 15 26 19 32 13 7 -7 3 -17 -11 -32z m-242 2 c4 -14 7 -40 8 -58 1
-46 -22 -37 -29 12 -3 20 -8 37 -12 36 -5 0 -12 0 -17 0 -6 0 -9 -17 -8 -37 3
-53 -17 -58 -21 -5 -2 23 -8 42 -13 42 -10 0 -14 -8 -23 -52 -4 -16 -10 -28
-15 -28 -8 0 -22 99 -15 111 1 3 33 5 70 5 64 -1 69 -3 75 -26z m54 -16 c0
-29 4 -39 18 -42 13 -3 17 3 17 26 0 36 9 62 21 62 5 0 9 -27 9 -61 l0 -60
-42 3 c-39 3 -43 5 -50 38 -8 42 0 82 16 77 6 -2 11 -21 11 -43z m253 -9 c-4
-66 -22 -78 -26 -16 -4 49 2 71 18 71 7 0 10 -20 8 -55z m116 47 c2 -4 7 -31
11 -59 6 -45 4 -53 -9 -53 -12 0 -16 10 -16 45 0 25 -4 45 -9 45 -15 0 -29
-24 -33 -54 -1 -16 -9 -31 -15 -34 -10 -3 -13 13 -13 56 l0 60 40 0 c22 0 41
-2 44 -6z m116 -2 c16 -9 19 -18 14 -58 -9 -81 -14 -92 -41 -103 -27 -10 -63
-4 -63 11 0 5 15 10 32 12 21 2 34 9 36 19 2 12 -3 15 -21 12 -31 -6 -49 18
-45 59 2 23 10 36 28 45 31 15 36 16 60 3z m346 2 c6 -4 13 -30 16 -58 l5 -52
-41 0 c-51 -1 -66 12 -66 54 0 46 51 80 86 56z m218 2 c26 -10 20 -35 -7 -29
-28 7 -52 -17 -43 -41 5 -12 14 -15 36 -10 22 4 30 2 30 -8 0 -28 -54 -34 -82
-9 -24 21 -23 44 3 77 21 26 35 31 63 20z"/>
<path d="M296 2022 c-3 -6 -1 -14 5 -17 15 -10 25 3 12 16 -7 7 -13 7 -17 1z"/>
<path d="M341 2014 c0 -11 3 -14 6 -6 3 7 2 16 -1 19 -3 4 -6 -2 -5 -13z"/>
<path d="M1725 1147 c-96 -114 -195 -242 -195 -252 0 -9 174 -120 188 -120 8
0 62 375 59 406 -2 24 -5 21 -52 -34z"/>
<path d="M1354 366 c-10 -26 4 -48 28 -44 17 2 23 10 23 28 0 18 -6 26 -23 28
-13 2 -25 -3 -28 -12z"/>
<path d="M1147 373 c-14 -13 -7 -53 8 -53 13 0 35 36 35 56 0 7 -36 5 -43 -3z"/>
<path d="M1497 373 c-4 -3 -7 -17 -7 -30 0 -16 6 -23 20 -23 16 0 20 7 20 30
0 28 -17 40 -33 23z"/>
</g>
</svg>
